<svg width="32" height="32" viewBox="0 0 32 32" fill="none" xmlns="http://www.w3.org/2000/svg">
<path d="M15.3437 22.1477C15.1396 22.0742 14.95 21.95 14.775 21.775L8.47499 15.475C8.12499 15.125 7.95699 14.7167 7.97099 14.25C7.98499 13.7833 8.15299 13.375 8.47499 13.025C8.82499 12.675 9.24091 12.493 9.72274 12.479C10.2046 12.465 10.6199 12.6324 10.9687 12.9813L14.25 16.2625V3.75001C14.25 3.25417 14.418 2.83884 14.754 2.50401C15.09 2.16917 15.5053 2.00117 16 2.00001C16.4947 1.99884 16.9106 2.16684 17.2477 2.50401C17.5849 2.84117 17.7523 3.25651 17.75 3.75001V16.2625L21.0312 12.9813C21.3812 12.6313 21.7971 12.4633 22.279 12.4773C22.7608 12.4913 23.1761 12.6738 23.525 13.025C23.8458 13.375 24.0138 13.7833 24.029 14.25C24.0441 14.7167 23.8761 15.125 23.525 15.475L17.225 21.775C17.05 21.95 16.8604 22.0742 16.6562 22.1477C16.4521 22.2212 16.2333 22.2574 16 22.2562C15.7667 22.2551 15.5479 22.2189 15.3437 22.1477ZM5.5 30C4.5375 30 3.71383 29.6576 3.029 28.9727C2.34417 28.2879 2.00117 27.4637 2 26.5V23C2 22.5042 2.168 22.0888 2.504 21.754C2.84 21.4192 3.25533 21.2512 3.75 21.25C4.24466 21.2488 4.66058 21.4168 4.99775 21.754C5.33491 22.0912 5.50233 22.5065 5.5 23V26.5H26.5V23C26.5 22.5042 26.668 22.0888 27.004 21.754C27.34 21.4192 27.7553 21.2512 28.25 21.25C28.7446 21.2488 29.1606 21.4168 29.4977 21.754C29.8349 22.0912 30.0023 22.5065 30 23V26.5C30 27.4625 29.6576 28.2867 28.9727 28.9727C28.2879 29.6587 27.4636 30.0012 26.5 30H5.5Z" fill="#68FF8E"/>
</svg>
