<svg width="32" height="32" viewBox="0 0 32 32" fill="none" xmlns="http://www.w3.org/2000/svg">
<path d="M5.5 30C4.5375 30 3.71383 29.6608 3.029 28.9824C2.34417 28.304 2.00117 27.4875 2 26.5329V23.0658C2 22.5746 2.168 22.1632 2.504 21.8315C2.84 21.4998 3.25533 21.3334 3.75 21.3323C4.24466 21.3311 4.66058 21.4975 4.99775 21.8315C5.33491 22.1655 5.50233 22.577 5.5 23.0658V26.5329H26.5V23.0658C26.5 22.5746 26.668 22.1632 27.004 21.8315C27.34 21.4998 27.7553 21.3334 28.25 21.3323C28.7446 21.3311 29.1606 21.4975 29.4977 21.8315C29.8349 22.1655 30.0023 22.577 30 23.0658V26.5329C30 27.4864 29.6576 28.3029 28.9727 28.9824C28.2879 29.662 27.4636 30.0012 26.5 30H5.5ZM14.25 8.93742L10.9687 12.1878C10.6187 12.5345 10.2034 12.7009 9.72274 12.6871C9.24208 12.6732 8.82616 12.4923 8.47499 12.1445C8.15416 11.7978 7.98616 11.3933 7.971 10.931C7.95583 10.4687 8.12383 10.0642 8.47499 9.71752L14.775 3.47675C14.95 3.3034 15.1396 3.18089 15.3437 3.10924C15.5479 3.03759 15.7667 3.00118 16 3.00003C16.2333 2.99887 16.4521 3.03527 16.6562 3.10924C16.8604 3.1832 17.05 3.30571 17.225 3.47675L23.525 9.71752C23.875 10.0642 24.043 10.4687 24.029 10.931C24.015 11.3933 23.847 11.7978 23.525 12.1445C23.175 12.4912 22.7597 12.6721 22.279 12.6871C21.7983 12.7021 21.3824 12.5357 21.0312 12.1878L17.75 8.93742V21.3323C17.75 21.8234 17.582 22.2354 17.246 22.5683C16.91 22.9011 16.4947 23.067 16 23.0658C15.5053 23.0647 15.09 22.8982 14.754 22.5666C14.418 22.2349 14.25 21.8234 14.25 21.3323V8.93742Z" fill="#FF985D"/>
</svg>
