<svg width="22" height="22" viewBox="0 0 22 22" fill="none" xmlns="http://www.w3.org/2000/svg">
<path d="M15.0838 6.83376C15.2774 6.64936 15.5352 6.54741 15.8026 6.54944C16.0701 6.55146 16.3262 6.6573 16.5171 6.84461C16.708 7.03192 16.8186 7.28606 16.8257 7.5534C16.8328 7.82074 16.7357 8.08037 16.555 8.27751L11.0688 15.1388C10.9744 15.2404 10.8606 15.3219 10.734 15.3785C10.6074 15.4351 10.4707 15.4656 10.3321 15.4682C10.1935 15.4707 10.0557 15.4453 9.92717 15.3935C9.79859 15.3416 9.68179 15.2643 9.58375 15.1663L5.9455 11.528C5.84418 11.4336 5.76292 11.3198 5.70655 11.1933C5.65019 11.0668 5.61988 10.9302 5.61744 10.7917C5.615 10.6533 5.64047 10.5157 5.69233 10.3873C5.7442 10.2589 5.8214 10.1423 5.91933 10.0443C6.01725 9.94641 6.1339 9.86921 6.26231 9.81734C6.39072 9.76548 6.52826 9.74001 6.66672 9.74245C6.80519 9.74489 6.94174 9.7752 7.06824 9.83156C7.19474 9.88793 7.30859 9.96919 7.403 10.0705L10.2823 12.9484L15.0576 6.86401L15.0838 6.83376Z" fill="#3B4448"/>
</svg>
