<svg width="50" height="38" viewBox="0 0 50 38" fill="none" xmlns="http://www.w3.org/2000/svg">
    <path
        d="M24.2215 22.6809L19.2581 17.5514C18.6723 16.9479 19.1484 16 20.0373 16H29.9642C30.1632 15.9998 30.3579 16.0515 30.5252 16.1489C30.6925 16.2463 30.8252 16.3852 30.9075 16.549C30.9897 16.7128 31.018 16.8945 30.9889 17.0725C30.9598 17.2504 30.8746 17.417 30.7435 17.5523L25.7801 22.68C25.6829 22.7805 25.5631 22.8611 25.4287 22.9163C25.2943 22.9714 25.1484 23 25.0008 23C24.8532 23 24.7072 22.9714 24.5728 22.9163C24.4384 22.8611 24.3186 22.7805 24.2215 22.68V22.6809Z"
        fill="#708a97" />
</svg>