<svg width="50" height="38" viewBox="0 0 50 38" fill="none" xmlns="http://www.w3.org/2000/svg">
    <path
        d="M23.1835 23.2707L11.6021 11.5461C10.2354 10.1666 11.3462 8 13.4205 8H36.5831C37.0474 7.99965 37.5019 8.11782 37.8922 8.34036C38.2826 8.56291 38.5922 8.88039 38.7841 9.25479C38.976 9.6292 39.0419 10.0446 38.9741 10.4514C38.9062 10.8581 38.7074 11.2389 38.4015 11.5482L26.8201 23.2686C26.5935 23.4983 26.314 23.6824 26.0003 23.8086C25.6867 23.9347 25.3463 24 25.0018 24C24.6574 24 24.3169 23.9347 24.0033 23.8086C23.6896 23.6824 23.4101 23.4983 23.1835 23.2686V23.2707Z"
        fill="#808a8f" />
</svg>