<svg width="50" height="38" viewBox="0 0 50 38" fill="none" xmlns="http://www.w3.org/2000/svg">
    <path
        d="M26.6868 14.7293L37.4409 26.4539C38.71 27.8334 37.6786 30 35.7524 30H14.2442C13.8132 30.0004 13.3911 29.8822 13.0286 29.6596C12.6662 29.4371 12.3786 29.1196 12.2005 28.7452C12.0223 28.3708 11.9611 27.9554 12.0241 27.5486C12.0871 27.1419 12.2717 26.7611 12.5558 26.4518L23.3099 14.7314C23.5203 14.5017 23.7799 14.3176 24.0711 14.1914C24.3623 14.0653 24.6785 14 24.9983 14C25.3182 14 25.6343 14.0653 25.9255 14.1914C26.2168 14.3176 26.4763 14.5017 26.6868 14.7314V14.7293Z"
        fill="#808a8f" />
</svg>