<svg width="50" height="38" viewBox="0 0 50 38" fill="none" xmlns="http://www.w3.org/2000/svg">
    <path
        d="M30.4075 20.4273L20.8812 29.5269C19.7603 30.6008 18 29.728 18 28.0982V9.89896C17.9997 9.53421 18.0957 9.1771 18.2765 8.8704C18.4574 8.56369 18.7153 8.32039 19.0195 8.16964C19.3237 8.01888 19.6613 7.96706 19.9918 8.02038C20.3222 8.0737 20.6316 8.2299 20.8829 8.47027L30.4057 17.5699C30.5924 17.748 30.742 17.9676 30.8445 18.214C30.947 18.4604 31 18.7279 31 18.9986C31 19.2692 30.947 19.5367 30.8445 19.7831C30.742 20.0296 30.5924 20.2492 30.4057 20.4273H30.4075Z"
        fill="#BDE6FB" />
</svg>