<svg width="50" height="38" viewBox="0 0 50 38" fill="none" xmlns="http://www.w3.org/2000/svg">
    <path
        d="M23.5727 24.4075L14.4731 14.8812C13.3992 13.7603 14.272 12 15.9018 12H34.101C34.4658 11.9997 34.8229 12.0957 35.1296 12.2765C35.4363 12.4574 35.6796 12.7153 35.8304 13.0195C35.9811 13.3237 36.0329 13.6613 35.9796 13.9918C35.9263 14.3222 35.7701 14.6316 35.5297 14.8829L26.4301 24.4057C26.252 24.5924 26.0324 24.742 25.786 24.8445C25.5396 24.947 25.2721 25 25.0014 25C24.7308 25 24.4633 24.947 24.2169 24.8445C23.9704 24.742 23.7508 24.5924 23.5727 24.4057V24.4075Z"
        fill="rgba(189,230,251,0.473)" />
</svg>